<svg width="512" height="512" viewBox="0 0 512 512" fill="none" xmlns="http://www.w3.org/2000/svg">
<path fill-rule="evenodd" clip-rule="evenodd" d="M128 64H384C431.128 64 469.333 102.205 469.333 149.333V320C469.333 367.128 431.128 405.333 384 405.333H295.104L267.306 446.932C262.612 453.972 249.386 453.972 244.692 446.932L216.894 405.333H128C80.8717 405.333 42.6667 367.128 42.6667 320V149.333C42.6667 102.205 80.8717 64 128 64Z" fill="#346AFE"/>
<path d="M255.333 336.333C238 336.333 222.944 332.389 210.167 324.5C197.389 316.611 187.611 305.611 180.833 291.5C174.056 277.278 170.667 261.111 170.667 243C170.667 224.778 174.111 208.556 181 194.333C187.889 180.111 197.667 169.056 210.333 161.167C223.111 153.278 237.889 149.333 254.667 149.333C268.333 149.333 280.611 151.889 291.5 157C302.389 162 311.167 169.111 317.833 178.333C324.5 187.556 328.444 198.222 329.667 210.333H295C293 201.333 288.556 193.889 281.667 188C274.889 182.111 266.111 179.111 255.333 179C245.556 179 236.944 181.611 229.5 186.833C222.167 191.944 216.444 199.278 212.333 208.833C208.333 218.278 206.333 229.333 206.333 242C206.333 255 208.333 266.333 212.333 276C216.333 285.667 222 293.111 229.333 298.333C236.667 303.444 245.222 306 255 306C265.222 306 273.889 303.333 281 298C288.111 292.667 292.778 285.111 295 275.333H329.667C328.333 287.111 324.444 297.611 318 306.833C311.667 316.056 303.111 323.278 292.333 328.5C281.556 333.722 269.222 336.333 255.333 336.333Z" fill="white"/>
</svg>
