<svg width="34" height="28" viewBox="0 0 34 28" fill="none" xmlns="http://www.w3.org/2000/svg">
<path d="M1.09998 5.75H4.09998L6.09998 9.75M6.09998 9.75H23.1L20.1 19.25H9.09998L6.09998 9.75Z" stroke="#868E96" stroke-width="1.5" stroke-linecap="round"/>
<circle cx="8.59998" cy="23.75" r="1.75" stroke="#868E96" stroke-width="1.5"/>
<circle cx="19.6" cy="23.75" r="1.75" stroke="#868E96" stroke-width="1.5"/>
<rect x="17.1" width="16" height="16" rx="8" fill="#346AFF"/>
<path d="M22.271 11.208C22.4616 11.0247 22.6193 10.8743 22.744 10.757C22.8686 10.6397 23.0263 10.493 23.217 10.317C23.855 9.73033 24.3683 9.239 24.757 8.843C25.153 8.447 25.4866 8.04 25.758 7.622C26.0366 7.204 26.176 6.81533 26.176 6.456C26.176 6.13333 26.11 5.84733 25.978 5.598C25.846 5.34133 25.6663 5.14333 25.439 5.004C25.2116 4.85733 24.9513 4.784 24.658 4.784C24.328 4.784 24.009 4.894 23.701 5.114C23.4003 5.334 23.173 5.62 23.019 5.972L22.194 5.609C22.4066 5.125 22.7403 4.729 23.195 4.421C23.657 4.113 24.1446 3.959 24.658 3.959C25.1273 3.959 25.5453 4.06533 25.912 4.278C26.286 4.49067 26.5756 4.78767 26.781 5.169C26.9863 5.543 27.089 5.972 27.089 6.456C27.089 6.94 26.935 7.43133 26.627 7.93C26.319 8.42867 25.9486 8.898 25.516 9.338C25.0906 9.778 24.5406 10.2987 23.866 10.9C23.5286 11.2007 23.2096 11.4977 22.909 11.791L22.271 11.208ZM22.271 11.208H27.221V12.022H22.381L22.271 11.208Z" fill="white"/>
</svg>
