<svg width="25" height="24" viewBox="0 0 25 24" fill="none" xmlns="http://www.w3.org/2000/svg">
<mask id="path-1-inside-1_2393_1114" fill="white">
<path fill-rule="evenodd" clip-rule="evenodd" d="M11.8356 2.59054C12.2145 2.25375 12.7855 2.25375 13.1644 2.59054L21.1644 9.70165C21.3779 9.89142 21.5 10.1634 21.5 10.4491V21C21.5 21.5523 21.0523 22 20.5 22L15.5 22C14.9477 22 14.5 21.5523 14.5 21V19C14.5 17.3431 13.6046 16 12.5 16C11.3954 16 10.5 17.3431 10.5 19V21C10.5 21.5523 10.0523 22 9.5 22L4.5 22C3.94771 22 3.5 21.5523 3.5 21V10.4491C3.5 10.1634 3.62215 9.89142 3.83564 9.70165L11.8356 2.59054Z"/>
</mask>
<path d="M4.5 22L4.5 24L4.5 22ZM15.5 22L15.5 20L15.5 22ZM20.5 22L20.5 20L20.5 22ZM11.8356 2.59054L10.5069 1.09572L11.8356 2.59054ZM21.1644 9.70165L19.8356 11.1965L21.1644 9.70165ZM22.4931 8.20683L14.4931 1.09572L11.8356 4.08536L19.8356 11.1965L22.4931 8.20683ZM23.5 21V10.4491H19.5V21H23.5ZM15.5 24L20.5 24L20.5 20L15.5 20L15.5 24ZM12.5 19V21H16.5V19H12.5ZM12.5 18C12.1755 18 12.1266 17.8028 12.2501 17.9881C12.3643 18.1594 12.5 18.5113 12.5 19H16.5C16.5 17.8318 16.1879 16.6837 15.5783 15.7693C14.978 14.8688 13.929 14 12.5 14V18ZM12.5 19C12.5 18.5113 12.6357 18.1594 12.7499 17.9881C12.8734 17.8028 12.8245 18 12.5 18V14C11.071 14 10.022 14.8688 9.42169 15.7693C8.81206 16.6837 8.5 17.8318 8.5 19H12.5ZM12.5 21V19H8.5V21H12.5ZM4.5 24L9.5 24L9.5 20L4.5 20L4.5 24ZM1.5 10.4491V21H5.5V10.4491H1.5ZM10.5069 1.09572L2.50691 8.20683L5.16436 11.1965L13.1644 4.08536L10.5069 1.09572ZM5.5 10.4491C5.5 10.7347 5.37785 11.0067 5.16436 11.1965L2.50691 8.20683C1.86644 8.77614 1.5 9.59215 1.5 10.4491H5.5ZM4.5 20C5.05228 20 5.5 20.4477 5.5 21H1.5C1.5 22.6569 2.84315 24 4.5 24L4.5 20ZM15.5 20C16.0523 20 16.5 20.4477 16.5 21H12.5C12.5 22.6569 13.8431 24 15.5 24L15.5 20ZM8.5 21C8.5 20.4477 8.94772 20 9.5 20L9.5 24C11.1569 24 12.5 22.6569 12.5 21H8.5ZM19.5 21C19.5 20.4477 19.9477 20 20.5 20L20.5 24C22.1569 24 23.5 22.6569 23.5 21H19.5ZM14.4931 1.09572C13.3564 0.085361 11.6436 0.085361 10.5069 1.09572L13.1644 4.08536C12.7855 4.42215 12.2145 4.42215 11.8356 4.08536L14.4931 1.09572ZM19.8356 11.1965C19.6221 11.0067 19.5 10.7347 19.5 10.4491H23.5C23.5 9.59215 23.1336 8.77614 22.4931 8.20683L19.8356 11.1965Z" fill="#346AFE" mask="url(#path-1-inside-1_2393_1114)"/>
</svg>
